<svg xmlns="http://www.w3.org/2000/svg" version="1.1" xmlns:xlink="http://www.w3.org/1999/xlink" width="20" height="20" x="0" y="0" viewBox="0 0 96 96" style="enable-background:new 0 0 512 512" xml:space="preserve"><g><g data-name="Cash Money"><path d="M51.39 21.81H14.61a1 1 0 0 0 0 2h36.78a1 1 0 0 0 0-2zM63.94 21.81H60.1a1 1 0 0 0 0 2h3.84a1 1 0 0 0 0-2zM60.29 58.15a8.32 8.32 0 1 0 4 7.78 8.23 8.23 0 0 0-4-7.78zm2 7.6a6.33 6.33 0 1 1-9.64-5.88 6.32 6.32 0 0 1 9.61 5.88z" fill="#2F7152" opacity="1" data-original="#000000"></path><path d="M95.78 46.51A3.59 3.59 0 0 0 92.19 43H80l-.13-30.32a4.27 4.27 0 0 0-4.27-4.23l-71.32.3A4.25 4.25 0 0 0 .07 13c0 9.4-.11-3.44.15 56.86a3.58 3.58 0 0 0 3.57 3.56h12.29v10.6a3.58 3.58 0 0 0 3.6 3.56l72.65-.31a3.58 3.58 0 0 0 3.57-3.59c.04-3.68.1 13.5-.12-37.17zM2.83 29.24c-.07 0-.62.21-.72.26v-3.58a2.22 2.22 0 0 1 2.21-2.1h2.76a1 1 0 0 0 1-1 1 1 0 0 0-1-1H4.3a4.3 4.3 0 0 0-2.22.65v-3.76a2.26 2.26 0 0 1 2.22-1.94l71.31-.3a2.27 2.27 0 0 1 2.27 2.24l.05 10.53c-1.14-.58 1.86-.4-74.31-.09a5 5 0 0 0-.79.09zM4.3 10.75l71.31-.3a2.27 2.27 0 0 1 2.27 2.24v2.45a4.23 4.23 0 0 0-2.28-.67l-71.32.3a4.22 4.22 0 0 0-2.21.64V13a2.25 2.25 0 0 1 2.23-2.25zm11.77 60.64H3.79a1.58 1.58 0 0 1-1.57-1.57c-.17-40.15-.25-37.26 0-37.8.64-1.34-1.17-.91 74.06-1.22a1.58 1.58 0 0 1 1.59 1.57L77.93 43h-4.38v-3.8a1 1 0 0 0-1-1 2 2 0 0 1-2-2 1 1 0 0 0-1-1c-2.88 0 14.71-.06-59.06.25a1 1 0 0 0-1 1 2 2 0 0 1-2 2 1 1 0 0 0-1 1l.1 23.56a1 1 0 0 0 .3.7 1.13 1.13 0 0 0 .71.29 2 2 0 0 1 2 2 1 1 0 0 0 1 1h5.48c-.02 2.1-.02 1.12-.01 4.39zM16 46.85V65h-4.6a4.07 4.07 0 0 0-2.88-2.86l-.1-21.8a4 4 0 0 0 2.86-2.88l57.32-.25a4 4 0 0 0 2.89 2.86v2.92l-52 .23A3.58 3.58 0 0 0 16 46.85zm76.4 38.39-72.66.31A1.58 1.58 0 0 1 18.12 84c-.12-33.6 0-2.2-.12-37.16a1.58 1.58 0 0 1 1.57-1.58L92.19 45a1.6 1.6 0 0 1 1.59 1.57l.16 37.13a1.58 1.58 0 0 1-1.57 1.54z" fill="#2F7152" opacity="1" data-original="#000000"></path><path d="M88.42 52.34a2 2 0 0 1-2-2 1 1 0 0 0-1-1l-59.06.25a1 1 0 0 0-1 1 2 2 0 0 1-2 2 1 1 0 0 0-1 1l.1 23.54a1 1 0 0 0 1 1 2 2 0 0 1 2 2 1 1 0 0 0 1 1c2.88 0-15.18.06 59.07-.25a1 1 0 0 0 1-1 2 2 0 0 1 2-2 1 1 0 0 0 1-1l-.1-23.55a1 1 0 0 0-1.01-.99zM84.67 78.9l-57.32.25a4 4 0 0 0-2.88-2.87l-.1-21.79a4 4 0 0 0 2.86-2.89l57.32-.25a4 4 0 0 0 2.89 2.87l.1 21.8a4 4 0 0 0-2.87 2.88z" fill="#2F7152" opacity="1" data-original="#000000"></path></g></g></svg>