<svg xmlns="http://www.w3.org/2000/svg" version="1.1" xmlns:xlink="http://www.w3.org/1999/xlink" width="20" height="20" x="0" y="0" viewBox="0 0 96 96" style="enable-background:new 0 0 512 512" xml:space="preserve" class=""><g><path d="M51 27.16a6.29 6.29 0 1 0 4.89 7.43A6.3 6.3 0 0 0 51 27.16Zm2.93 7A4.29 4.29 0 1 1 49.76 29 4.29 4.29 0 0 1 54 34.19Z" fill="#2F7152" opacity="1" data-original="#000000" class=""></path><path d="M88.84 59.67h-1.47V42.41a8.92 8.92 0 0 0-5-8c3-1.93 2.46-1.63 2.58-1.69a4.12 4.12 0 0 0 1.18-5.69L69.93 2.44a4.11 4.11 0 0 0-5.69-1.16L15.12 33.55h-2.56a8.87 8.87 0 0 0-8.86 8.86v45a8 8 0 0 0 5.64 7.66c1.63.5-3.66.35 70 .35a8 8 0 0 0 8-8v-8h1.47a3.47 3.47 0 0 0 3.46-3.46V63.13a3.47 3.47 0 0 0-3.43-3.46Zm0 2a1.47 1.47 0 0 1 .7 2.76 5.19 5.19 0 0 1-2.17.16v-2.92ZM65.34 3a2.1 2.1 0 0 1 2.91.59l16.18 24.56a2.11 2.11 0 0 1-.6 2.92L68 41.49h-6.17l15.35-10.08a1 1 0 0 0 .28-1.41 2.47 2.47 0 0 1 .71-3.43 1 1 0 0 0 .29-1.39l-9.88-15a1 1 0 0 0-1.38-.28 2.47 2.47 0 0 1-3.42-.72 1 1 0 0 0-1.39-.28l-40 26.31a1 1 0 0 0-.29 1.38 2.48 2.48 0 0 1-.7 3.44 1 1 0 0 0-.29 1.38c.07.1.49.06-4 .06l-2-3a2.09 2.09 0 0 1 .61-2.91ZM23.5 41.49l-.27-.41a4.49 4.49 0 0 0 1-4.67l38.52-25.33a4.47 4.47 0 0 0 4.65 1l8.9 13.52a4.47 4.47 0 0 0-1 4.67L58.19 41.49Zm-17.8.92a6.87 6.87 0 0 1 6.86-6.86h.59a4.13 4.13 0 0 0 .27 4l1.26 1.91h-4.59v2h67.65a1 1 0 0 0 0-2H71.6l8.69-5.7a6.88 6.88 0 0 1 5.08 6.62v8.88a8.08 8.08 0 0 0-6-2.71H11.71a6 6 0 0 1-6.01-6.14Zm0 5.45a8 8 0 0 0 6 2.72h4.73v9.88h-4.72a6 6 0 0 1-6-6ZM8.91 62c1.73.65 2.66.51 7.53.51v20h-4.73a6 6 0 0 1-6-6V59.74A8.1 8.1 0 0 0 8.91 62Zm1 31.19a6 6 0 0 1-4.21-5.8v-5.61a8.09 8.09 0 0 0 4.3 2.54c1.12.24 1.53.18 6.41.18v8.9c-4.88 0-5.33.09-6.48-.26Zm75.44-5.73a6 6 0 0 1-6 6H18.44V50.58h60.94a6 6 0 0 1 6 6v8h-2.93a2.31 2.31 0 0 0-2.29-2.46h-6.88A2.31 2.31 0 0 0 71 64.59h-3.45a1 1 0 0 0-.76.36l-5.41 6.4a1 1 0 0 0 0 1.29L66.79 79a1 1 0 0 0 .76.35H71a2.3 2.3 0 0 0 2.29 2.46h6.88a2.3 2.3 0 0 0 2.29-2.46h2.92ZM71 77.38h-3L63.45 72 68 66.59h3Zm2-12.95a.3.3 0 0 1 .29-.3h6.88a.29.29 0 0 1 .29.3v15.12a.28.28 0 0 1-.29.29h-6.89a.29.29 0 0 1-.29-.29Zm17.3 11.49a1.46 1.46 0 0 1-1.46 1.46h-6.39V66.59c6.64 0 6.9.13 7.85-.31Z" fill="#2F7152" opacity="1" data-original="#000000" class=""></path></g></svg>