<svg viewBox="0 0 100 100" xml:space="preserve" xmlns="http://www.w3.org/2000/svg" enable-background="new 0 0 100 100"><path d="M95.8 23.2c-.3-.3-.8-.4-1.2-.3-2.1.9-4.2 1.7-6.4 2.2 2.4-2.3 4.2-5.2 5.2-8.5.1-.4 0-.8-.3-1.1-.3-.3-.8-.3-1.1-.1-3.4 2.1-7 3.5-10.9 4.4-3.6-3.8-8.6-5.9-13.8-5.9-6 0-11.5 2.8-15.3 7.6-3.4 4.4-4.9 10.1-4 15.6-13.9-1-27-8-36-19.3-.2-.3-.5-.4-.9-.4-.3 0-.6.2-.8.5C8.7 21 7.8 24.5 7.8 28c0 5.5 2.2 10.6 5.9 14.3-1.6-.4-3.1-1-4.6-1.8-.3-.2-.7-.2-1 0-.3.2-.5.5-.5.9v.2c0 8 4.7 15.1 11.6 18.2-1.3 0-2.6-.1-3.9-.3-.3-.1-.7.1-.9.3-.2.3-.3.6-.2 1 2.3 7.2 8.3 12.4 15.5 13.6-5.9 4.1-13 6.3-20.2 6.3-1.4 0-2.9-.1-4.4-.3-.5-.1-.9.2-1.1.7-.2.4 0 .9.4 1.2C13.1 88 23 91 33.2 91h.1c33.5 0 53.5-27.9 53.5-54.9v-2c3.5-2.7 6.6-6 9-9.7.3-.4.3-.8 0-1.2z" fill="#ffffff" class="fill-000000"></path></svg>